<?xml version="1.0" encoding="UTF-8"?>
<svg width="368px" height="368px" viewBox="0 0 368 368" version="1.1" xmlns="http://www.w3.org/2000/svg" xmlns:xlink="http://www.w3.org/1999/xlink">
    <title>ic_color</title>
    <defs>
        <radialGradient cx="89.7499613%" cy="1.998569%" fx="89.7499613%" fy="1.998569%" r="224.949616%" id="radialGradient-1">
            <stop stop-color="#32C5FF" offset="0%"></stop>
            <stop stop-color="#B620E0" offset="51.2583893%"></stop>
            <stop stop-color="#F7B500" offset="100%"></stop>
        </radialGradient>
        <path d="M83,0 L285,0 C330.839634,-8.4206042e-15 368,37.1603658 368,83 L368,285 C368,330.839634 330.839634,368 285,368 L83,368 C37.1603658,368 5.61373613e-15,330.839634 0,285 L0,83 C-5.61373613e-15,37.1603658 37.1603658,8.4206042e-15 83,0 Z" id="path-2"></path>
    </defs>
    <g id="Page-1" stroke="none" stroke-width="1" fill="none" fill-rule="evenodd">
        <g id="miwave-app-color" transform="translate(-88.000000, -87.000000)">
            <g id="ic_color" transform="translate(88.000000, 87.000000)">
                <mask id="mask-3" fill="white">
                    <use xlink:href="#path-2"></use>
                </mask>
                <use id="Mask" fill="url(#radialGradient-1)" xlink:href="#path-2"></use>
                <g id="Group-3" mask="url(#mask-3)">
                    <g transform="translate(92.000000, 97.000000)" id="Group">
                        <path d="M138.099488,7.00631669 L176.911916,0.926675501 C179.707227,0.48881344 182.328232,2.39990364 182.766094,5.19521493 C182.807177,5.45748981 182.827812,5.72256128 182.827812,5.98803433 L182.827812,146.66573 C182.827812,149.189034 180.99046,151.336596 178.497555,151.727089 L139.685127,157.80673 C136.889816,158.244592 134.268811,156.333502 133.830949,153.538191 C133.789866,153.275916 133.769231,153.010844 133.769231,152.745371 L133.769231,12.0676755 C133.769231,9.54437183 135.606583,7.3968094 138.099488,7.00631669 Z M115.596862,47.8875213 C115.637945,48.1497962 115.65858,48.4148676 115.65858,48.6803407 L115.65858,162.174942 C115.65858,164.25862 115.471301,165.016156 115.104896,165.79879 C114.738491,166.581424 114.192961,167.21906 113.476458,167.702166 C112.759955,168.185273 112.040527,168.487528 109.981951,168.809987 L72.5158944,174.67873 C69.7205831,175.116592 67.0995783,173.205502 66.6617162,170.410191 C66.620633,170.147916 66.5999982,169.882845 66.5999982,169.617372 L66.5999982,56.1227705 C66.5999982,54.0390921 66.7872773,53.2815558 67.153682,52.4989218 C67.5200867,51.7162879 68.0656171,51.0786526 68.7821198,50.5955458 C69.4986225,50.1124391 70.2180505,49.810184 72.2766267,49.4877253 L109.742684,43.6189818 C112.537995,43.1811198 115.159,45.09221 115.596862,47.8875213 Z M48.9968635,24.2540727 C49.0379467,24.5163476 49.0585815,24.7814191 49.0585815,25.0468921 L49.0585815,144.719934 C49.0585815,146.803612 48.8713025,147.561148 48.5048978,148.343782 C48.1384931,149.126416 47.5929627,149.764052 46.87646,150.247158 C46.1599572,150.730265 45.4405293,151.03252 43.381953,151.354979 L5.91589618,157.223722 C3.12058489,157.661584 0.499580021,155.750494 0.0617179602,152.955183 C0.0206348007,152.692908 1.36161003e-12,152.427837 1.36424205e-12,152.162363 L1.36392926e-12,32.489322 C1.36440752e-12,30.4056436 0.187279034,29.6481072 0.553683744,28.8654733 C0.920088455,28.0828394 1.46561884,27.4452041 2.18212155,26.9620973 C2.89862426,26.4789905 3.61805225,26.1767355 5.67662847,25.8542768 L43.1426853,19.9855333 C45.9379966,19.5476712 48.5590015,21.4587614 48.9968635,24.2540727 Z" id="Rectangle-2" fill="#FFFFFF"></path>
                    </g>
                </g>
            </g>
        </g>
    </g>
</svg>